<?xml version="1.0" encoding="UTF-8" standalone="no"?>
<!-- Generator: Adobe Illustrator 16.0.0, SVG Export Plug-In . SVG Version: 6.00 Build 0)  -->
<svg xmlnsrdf="http://www.w3.org/1999/02/22-rdf-syntax-ns#" 
   xmlnssvg="http://www.w3.org/2000/svg" 
   xmlns="http://www.w3.org/2000/svg" version="1.1" x="0px" y="0px" width="15px" height="auto" fill="white" opacity="0.8" viewBox="0 0 471.44 471.44" xmlSpace="preserve">
   <g>
      <g>
         <path d="M334.502,367.407c10.679-1.188,16.676-9.303,17.951-17.752c0.654-1.93,1.117-4.012,1.122-6.409    c0.37-99.264,7.383-198.308,10.171-297.506c0.005-0.223-0.046-0.411-0.046-0.629c5.129-11.055-0.345-27.845-16.483-28.615    c-101.655-4.842-203.396-5.08-305.145-5.085c-13.386,0-19.428,11.293-18.243,21.594c-0.452,1.577-0.774,3.245-0.833,5.108    C20.086,140.16,10.263,241.718,0.112,343.246c-1.274,12.767,8.503,18.743,18.486,18.169c1.737,0.519,3.583,0.895,5.672,0.904    C127.811,363.132,231.079,378.884,334.502,367.407z M40.127,324.433c9.077-91.462,17.516-182.962,20.601-274.848    c88.225,0.041,176.447,0.597,264.603,4.243c-2.803,92.437-8.932,184.752-9.765,277.242    C223.759,338.442,132.038,326.402,40.127,324.433z" id="path2" />
         <path d="M450.326,114.966l-0.539-0.073c-0.635-0.087-1.264-0.165-1.949-0.165h-53.975c-12.426,0-18.92,9.795-18.92,19.466    c0,9.678,6.5,19.469,18.92,19.469h35.968c-14.98,100.419-22.531,184.872-23.72,265.296c-45.996,1.463-95.303,2.117-159.382,2.117    c-27.439,0-54.878-0.116-82.317-0.229c-18.417-0.081-36.831-0.157-55.243-0.197c-0.447-6.495-1.221-11.989-2.397-17.123    c-1.904-8.333-9.902-14.376-19.012-14.376c-1.699,0-3.364,0.224-4.966,0.66c-10.227,2.813-16.087,13.065-13.622,23.836    c1.622,7.099,1.607,15.528,1.584,23.688l-0.005,2.737c0,5.261,1.836,9.856,5.149,13.121l1.066,1.077    c3.44,3.442,8.023,5.271,13.253,5.271c25.39,0.021,50.788,0.127,76.172,0.244c27.959,0.116,55.914,0.243,83.875,0.243    c70.889,0,124.913-0.843,175.17-2.736c12.314-0.462,18.312-10.151,18.737-19.063c0.432-1.716,0.635-3.275,0.641-4.88    c0.437-88.95,8.81-182.462,26.359-294.266c0.939-6.007-0.64-11.789-4.448-16.283C462.665,118.018,456.282,115.009,450.326,114.966    z" id="path4" />
      </g>
   </g>
   <g />
   <g />
   <g />
   <g />
   <g />
   <g />
   <g />
   <g />
   <g />
   <g />
   <g />
   <g />
   <g />
   <g />
   <g />
   <path d="m 204.75678,331.48281 c -5.49347,-0.33097 -37.85503,-1.97304 -71.91458,-3.64905 -88.550514,-4.35744 -88.923744,-4.38067 -90.157346,-5.61429 -0.61617,-0.61616 1.637962,-31.52231 5.009182,-68.68034 3.371219,-37.15803 7.538042,-90.48282 9.259605,-118.49954 1.721564,-28.01672 3.625416,-58.355679 4.230783,-67.419912 l 1.100667,-16.480423 79.226349,0.09525 c 84.24128,0.101282 179.43944,2.56704 181.57544,4.703044 0.708,0.70799 -0.31047,39.24629 -2.26325,85.640671 -1.95278,46.39437 -4.05013,107.82165 -4.66078,136.50506 l -1.11028,52.15165 -20.99958,1.28488 c -20.19471,1.23563 -68.50443,1.21561 -89.29621,-0.037 z" />
   <path d="m 117.86,326.37236 c -40.102364,-2.14939 -73.32619,-4.31645 -73.830724,-4.8157 -0.504534,-0.49925 2.056917,-37.38271 5.692114,-81.96326 3.635197,-44.58054 8.11664,-104.71929 9.958762,-133.64166 1.842123,-28.922373 3.832381,-53.069199 4.422798,-53.659616 1.470791,-1.470791 253.05773,2.321052 255.53379,3.851329 2.6961,1.666285 2.58996,14.630303 -1.05483,128.836817 -4.66971,146.32189 -4.46365,143.22901 -9.63465,144.61622 -9.00772,2.41649 -121.14876,0.5244 -191.08726,-3.22413 z" />
   <path d="m 117.86,326.37236 c -40.102364,-2.14939 -73.323786,-4.31404 -73.825382,-4.81035 -0.501596,-0.49631 2.047326,-37.49803 5.664273,-82.22605 3.616946,-44.72801 8.084367,-104.85754 9.927602,-133.62118 1.843235,-28.763646 3.864839,-52.811038 4.492456,-53.438655 1.507779,-1.507778 252.996731,2.309233 255.535751,3.878432 2.67996,1.656303 2.55872,16.479593 -1.0782,131.822153 -4.47219,141.83289 -4.36168,140.20676 -9.62325,141.61822 -9.01309,2.41785 -121.13412,0.52706 -191.09325,-3.22257 z" />
   <path d="m 117.92254,326.46217 c -40.067971,-2.11942 -73.288754,-4.29138 -73.823963,-4.8266 -0.53521,-0.53521 1.575284,-32.62527 4.689988,-71.31124 3.114703,-38.68597 7.595577,-98.83024 9.957498,-133.65392 2.36192,-34.823691 4.920713,-63.942112 5.686205,-64.707605 1.677738,-1.677736 252.366182,2.42649 255.200342,4.178094 2.69503,1.665631 2.50826,28.090513 -0.92405,130.730641 -4.52222,135.23379 -4.80427,140.5274 -7.58137,142.29081 -4.47183,2.83954 -118.6404,1.24396 -193.20465,-2.70018 z" />
   <path d="m 198.7639,369.3945 c -6.59217,-0.33533 -37.15587,-1.93838 -67.91932,-3.56235 -30.76346,-1.62397 -70.125749,-3.54909 -87.471756,-4.27802 C 15.844634,360.39728 11.17483,359.70976 6.6453725,356.14689 1.5359076,352.12779 1.4740397,351.77103 2.6219036,332.94611 3.2630882,322.43072 6.0362798,290.00552 8.7845521,260.8901 15.687456,187.76019 19.469132,136.20766 21.972924,81.103661 24.492603,25.650063 24.807746,23.174822 30.067085,17.529585 l 4.048211,-4.345246 97.306504,0.01538 c 108.2893,0.01712 214.39586,2.950523 222.39055,6.148175 5.64012,2.255886 9.86793,8.50517 10.0443,14.846858 0.0605,2.177959 -0.44794,13.398712 -1.13007,24.935009 -2.6482,44.786659 -7.5623,171.675279 -8.89681,229.727119 -1.5339,66.72506 -2.3098,71.02625 -13.63954,75.61021 -11.93798,4.83004 -89.92377,7.54711 -141.42633,4.92741 z m 116.66618,-37.72359 c 0.6566,-0.65497 1.31318,-20.21959 1.45906,-43.47692 l 0.26525,-42.28609 -1.48747,40.6629 c -1.13919,31.14169 -2.13679,41.11077 -4.2605,42.57567 -6.00805,4.14423 -262.898492,-3.13474 -267.36717,-7.57583 -0.499047,-0.49597 2.064192,-38.84789 5.69609,-85.22648 3.631896,-46.37861 8.088628,-106.50162 9.903848,-133.6067 1.81522,-27.105088 3.949411,-49.930984 4.742642,-50.724218 1.829983,-1.82998 252.46696,2.407173 255.56269,4.320426 1.68973,1.044312 1.95451,14.94127 1.00127,52.548032 -2.21735,87.47586 -3.08828,137.2319 -2.3111,132.03213 1.42884,-9.55964 7.62013,-185.803596 6.5642,-186.859524 -1.92629,-1.926284 -115.07303,-4.812116 -190.6614,-4.862858 l -74.214548,-0.04982 -1.28824,23.472119 C 55.732387,132.78297 51.310219,193.3483 45.87675,252.82311 c -3.258314,35.66551 -5.924207,66.37723 -5.924207,68.24829 0,4.11605 2.333937,4.33061 94.887287,8.72286 36.25693,1.72061 70.41636,3.45799 75.90983,3.86085 14.749,1.08157 103.28945,-0.59669 104.68042,-1.9842 z" />
   <path d="m 323.7733,83.933633 c 0.0959,-2.327121 0.56921,-2.800472 1.2069,-1.2069 0.57706,1.442038 0.50609,3.164991 -0.15771,3.828786 -0.66379,0.663795 -1.13593,-0.516054 -1.04919,-2.621886 z" />
</svg>