<?xml version="1.0" encoding="UTF-8" standalone="no"?>
<svg
   xmlns:dc="http://purl.org/dc/elements/1.1/"
   xmlns:cc="http://creativecommons.org/ns#"
   xmlns:rdf="http://www.w3.org/1999/02/22-rdf-syntax-ns#"
   xmlns:svg="http://www.w3.org/2000/svg"
   xmlns="http://www.w3.org/2000/svg"
   xmlns:sodipodi="http://sodipodi.sourceforge.net/DTD/sodipodi-0.dtd"
   xmlns:inkscape="http://www.inkscape.org/namespaces/inkscape"
   version="1.1"
   viewBox="0 0 129 129"
   enable-background="new 0 0 129 129"
   id="svg10"
   sodipodi:docname="prevIcon.svg"
   inkscape:version="0.92.4 (5da689c313, 2019-01-14)">
  <metadata
     id="metadata16">
    <rdf:RDF>
      <cc:Work
         rdf:about="">
        <dc:format>image/svg+xml</dc:format>
        <dc:type
           rdf:resource="http://purl.org/dc/dcmitype/StillImage" />
        <dc:title></dc:title>
      </cc:Work>
    </rdf:RDF>
  </metadata>
  <defs
     id="defs14" />
  <sodipodi:namedview
     pagecolor="#ffffff"
     bordercolor="#666666"
     borderopacity="1"
     objecttolerance="10"
     gridtolerance="10"
     guidetolerance="10"
     inkscape:pageopacity="0"
     inkscape:pageshadow="2"
     inkscape:window-width="1920"
     inkscape:window-height="1001"
     id="namedview12"
     showgrid="false"
     inkscape:zoom="1.8294574"
     inkscape:cx="64.5"
     inkscape:cy="64.5"
     inkscape:window-x="-9"
     inkscape:window-y="-9"
     inkscape:window-maximized="1"
     inkscape:current-layer="svg10" />
  <g
     id="g8">
    <g
       id="g6" />
  </g>
  <path
     style="fill:#cbcbcd;fill-opacity:1;stroke-width:0.54661018"
     d="M 56.317714,113.49723 C 45.84574,111.59216 36.536747,106.64536 29.219003,99.096986 20.346208,89.94455 15.721614,79.473407 15.049684,67.014407 13.97433,47.075051 24.794728,28.885629 43.01822,19.998432 c 8.197096,-3.997543 11.007493,-4.60717 21.317797,-4.624222 9.666057,-0.01599 12.565092,0.523942 19.953999,3.716317 13.959926,6.031383 24.869764,19.049047 28.482414,33.98532 1.6142,6.673819 1.61942,16.739959 0.0119,22.81669 -2.96281,11.199523 -8.44687,19.955157 -16.888101,26.962873 -4.207985,3.49337 -13.88715,8.4208 -19.261421,9.80552 -4.055673,1.04498 -16.381125,1.55232 -20.317032,0.8363 z m 19.52196,-19.947387 c 0.87315,-0.873144 1.341682,-1.961013 1.341682,-3.115197 0,-1.581326 -1.315642,-3.093911 -12.14065,-13.958035 L 52.900056,64.292093 65.040706,52.074215 c 10.965919,-11.035676 12.14065,-12.394704 12.14065,-14.045351 0,-2.539937 -1.812554,-4.357678 -4.345245,-4.357678 -1.846547,0 -2.854502,0.88858 -16.303021,14.372255 -13.178045,13.212492 -14.334785,14.523792 -14.334785,16.250158 0,1.727404 1.150851,3.028754 14.360011,16.237914 12.934935,12.93494 14.537634,14.360012 16.149845,14.360012 1.171506,0 2.25334,-0.463509 3.131513,-1.341682 z"
     id="path825"
     inkscape:connector-curvature="0" />
</svg>
